<svg width="18" height="18" viewBox="0 0 18 18" fill="none" xmlns="http://www.w3.org/2000/svg">
<path d="M12.75 9C12.75 11.0711 11.0711 12.75 9 12.75C6.92893 12.75 5.25 11.0711 5.25 9C5.25 6.92893 6.92893 5.25 9 5.25C11.0711 5.25 12.75 6.92893 12.75 9ZM12.75 9C12.75 10.3807 13.5895 11.5 14.625 11.5C15.6605 11.5 16.5 10.3807 16.5 9.00001C16.5 7.08059 15.7678 5.16117 14.3033 3.6967C11.3744 0.767767 6.62563 0.767767 3.6967 3.6967C0.767767 6.62563 0.767767 11.3744 3.6967 14.3033C6.62563 17.2322 11.3744 17.2322 14.3033 14.3033M12.75 9V5.875" stroke="#5E5E5E" stroke-width="1.25" stroke-linecap="round" stroke-linejoin="round"/>
</svg>
