<svg width="20" height="20" viewBox="0 0 20 20" fill="none" xmlns="http://www.w3.org/2000/svg">
<path d="M13.75 10C13.75 12.0711 12.0711 13.75 10 13.75C7.92893 13.75 6.25 12.0711 6.25 10C6.25 7.92893 7.92893 6.25 10 6.25C12.0711 6.25 13.75 7.92893 13.75 10ZM13.75 10C13.75 11.3807 14.5895 12.5 15.625 12.5C16.6605 12.5 17.5 11.3807 17.5 10C17.5 8.08059 16.7678 6.16117 15.3033 4.6967C12.3744 1.76777 7.62563 1.76777 4.6967 4.6967C1.76777 7.62563 1.76777 12.3744 4.6967 15.3033C7.62563 18.2322 12.3744 18.2322 15.3033 15.3033M13.75 10V6.875" stroke="#5E5E5E" stroke-width="1.25" stroke-linecap="round" stroke-linejoin="round"/>
</svg>
