<svg width="335" height="334" viewBox="0 0 335 334" fill="none" xmlns="http://www.w3.org/2000/svg">
<path d="M282.312 118.445C294.616 122.404 303.188 134.146 303.188 147.631V207.272C303.188 223.09 291.394 236.503 275.629 237.79C270.912 238.175 266.181 238.512 261.438 238.8V281.812L219.688 240.062C200.848 240.062 182.19 239.294 163.746 237.789C159.594 237.45 155.718 236.27 152.26 234.427M282.312 118.445C280.205 117.767 277.989 117.318 275.687 117.127C257.223 115.594 238.546 114.812 219.687 114.812C200.828 114.812 182.151 115.594 163.688 117.126C147.947 118.433 136.188 131.836 136.188 147.631V207.271C136.188 218.923 142.587 229.271 152.26 234.427M282.312 118.445V92.3692C282.312 69.8045 266.284 50.2482 243.907 47.3432C215.482 43.6532 186.497 41.75 157.066 41.75C127.633 41.75 98.6449 43.6536 70.2174 47.3443C47.8407 50.2495 31.8125 69.8057 31.8125 92.3702V179.005C31.8125 201.57 47.8408 221.126 70.2175 224.031C78.247 225.073 86.3212 225.973 94.4375 226.728V292.25L152.26 234.427" stroke="#DBDBDB" stroke-width="1.25" stroke-linecap="round" stroke-linejoin="round"/>
</svg>
