<svg width="20" height="20" viewBox="0 0 20 20" fill="none" xmlns="http://www.w3.org/2000/svg">
<g id="eye-slash">
<path id="Shape" d="M3.31695 6.85214C2.5477 7.76152 1.96069 8.83001 1.6123 10.0012C2.68839 13.615 6.03626 16.25 9.99959 16.25C10.8267 16.25 11.6271 16.1352 12.3855 15.9207M5.19003 5.18969C6.57025 4.27965 8.22343 3.75 10.0003 3.75C13.9636 3.75 17.3115 6.38504 18.3876 9.99877C17.7943 11.9932 16.5091 13.6898 14.8103 14.81M5.19003 5.18969L2.50034 2.5M5.19003 5.18969L8.23257 8.23223M14.8103 14.81L17.5003 17.5M14.8103 14.81L11.7681 11.7678M11.7681 11.7678C12.2205 11.3154 12.5003 10.6904 12.5003 10C12.5003 8.61929 11.3811 7.5 10.0003 7.5C9.30999 7.5 8.68499 7.77982 8.23257 8.23223M11.7681 11.7678L8.23257 8.23223" stroke="#5E5E5E" stroke-width="1.25" stroke-linecap="round" stroke-linejoin="round"/>
</g>
</svg>
