<svg width="16" height="16" viewBox="0 0 16 16" fill="none" xmlns="http://www.w3.org/2000/svg">
<path d="M7.20035 14.7334C7.00702 14.7334 6.81368 14.7001 6.63368 14.6334C5.80035 14.3601 5.26702 13.4401 5.45368 12.5867L5.78035 10.4867C5.78702 10.4401 5.78702 10.3734 5.74035 10.3201C5.70702 10.2867 5.66035 10.2667 5.60702 10.2667H2.94035C2.28702 10.2667 1.72035 9.99339 1.38702 9.52006C1.06035 9.06006 0.993685 8.45339 1.20702 7.86672L2.80035 3.01339C3.04702 2.04672 4.08035 1.26672 5.14702 1.26672H7.68035C8.05368 1.26672 8.86702 1.38006 9.30035 1.81339L11.3204 3.37339L10.707 4.16672L8.64035 2.56672C8.47368 2.40006 8.05368 2.26672 7.68035 2.26672H5.14702C4.54702 2.26672 3.90035 2.74672 3.76702 3.28672L2.15368 8.18672C2.04702 8.48006 2.06702 8.74672 2.20702 8.94006C2.35368 9.14672 2.62035 9.26672 2.94702 9.26672H5.61368C5.96035 9.26672 6.28035 9.41339 6.50035 9.66672C6.72702 9.92672 6.82702 10.2734 6.77368 10.6334L6.44035 12.7734C6.36035 13.1467 6.61368 13.5667 6.97368 13.6867C7.29368 13.8067 7.72035 13.6334 7.86702 13.4201L10.6004 9.35339L11.427 9.91339L8.69368 13.9801C8.38035 14.4467 7.78702 14.7334 7.20035 14.7334Z" fill="white"/>
<path d="M13.0801 12.0667H12.4134C11.1801 12.0667 10.5801 11.4867 10.5801 10.3V3.76667C10.5801 2.58 11.1801 2 12.4134 2H13.0801C14.3134 2 14.9134 2.58 14.9134 3.76667V10.3C14.9134 11.4867 14.3134 12.0667 13.0801 12.0667ZM12.4134 3C11.6867 3 11.5801 3.17333 11.5801 3.76667V10.3C11.5801 10.8933 11.6867 11.0667 12.4134 11.0667H13.0801C13.8067 11.0667 13.9134 10.8933 13.9134 10.3V3.76667C13.9134 3.17333 13.8067 3 13.0801 3H12.4134Z" fill="white"/>
</svg>
