<svg width="16" height="16" viewBox="0 0 16 16" fill="none" xmlns="http://www.w3.org/2000/svg">
<path d="M10.8532 14.7333H8.31991C7.94658 14.7333 7.13324 14.62 6.69991 14.1866L4.67991 12.6266L5.29324 11.8333L7.35991 13.4333C7.52658 13.5933 7.94658 13.7266 8.31991 13.7266H10.8532C11.4532 13.7266 12.0999 13.2466 12.2332 12.7066L13.8466 7.80662C13.9532 7.51329 13.9332 7.24662 13.7932 7.05329C13.6466 6.84662 13.3799 6.72662 13.0532 6.72662H10.3866C10.0399 6.72662 9.71991 6.57995 9.49991 6.32662C9.27324 6.06662 9.17324 5.71995 9.22658 5.35995L9.55991 3.21995C9.63991 2.84662 9.38658 2.42662 9.02658 2.30662C8.69991 2.18662 8.27991 2.35995 8.13324 2.57329L5.39991 6.63995L4.57324 6.08662L7.30658 2.01995C7.72658 1.39329 8.64658 1.09329 9.36658 1.36662C10.1999 1.63995 10.7332 2.55995 10.5466 3.41329L10.2199 5.51329C10.2132 5.55995 10.2132 5.62662 10.2599 5.67995C10.2932 5.71329 10.3399 5.73329 10.3932 5.73329H13.0599C13.7132 5.73329 14.2799 6.00662 14.6132 6.47995C14.9399 6.93995 15.0066 7.54662 14.7932 8.13329L13.1999 12.9866C12.9532 13.9533 11.9266 14.7333 10.8532 14.7333Z" fill="white"/>
<path d="M3.58691 14H2.92025C1.68691 14 1.08691 13.42 1.08691 12.2334V5.70002C1.08691 4.51335 1.68691 3.93335 2.92025 3.93335H3.58691C4.82025 3.93335 5.42025 4.51335 5.42025 5.70002V12.2334C5.42025 13.42 4.82025 14 3.58691 14ZM2.92025 4.93335C2.19358 4.93335 2.08691 5.10668 2.08691 5.70002V12.2334C2.08691 12.8267 2.19358 13 2.92025 13H3.58691C4.31358 13 4.42025 12.8267 4.42025 12.2334V5.70002C4.42025 5.10668 4.31358 4.93335 3.58691 4.93335H2.92025Z" fill="white"/>
</svg>
