<svg width="80" height="25" viewBox="0 0 80 25" fill="none" xmlns="http://www.w3.org/2000/svg">
<path d="M33.8987 0.731658C33.3551 0.244292 32.6467 0 31.7733 0C30.9 0 30.1915 0.244292 29.648 0.731658C29.1044 1.21902 28.832 1.84442 28.832 2.60661C28.832 3.35049 29.1032 3.96732 29.648 4.45469C30.1915 4.94206 30.9 5.18635 31.7733 5.18635C32.6467 5.18635 33.3551 4.94328 33.8987 4.45469C34.4422 3.96732 34.7146 3.35171 34.7146 2.60661C34.7146 1.84442 34.4422 1.21902 33.8987 0.731658Z" fill="#FD4F02"/>
<path d="M34.1983 5.96289H29.4297V20.8831H34.1983V5.96289Z" fill="#FD4F02"/>
<path d="M21.6791 8.78332C21.5606 8.97997 20.5614 10.9282 20.5956 10.9441C20.5944 10.9441 19.8676 10.5948 19.8676 10.5948C20.4796 9.34153 21.2088 7.70965 21.2369 6.31107H16.4023V20.8832H21.2369V14.2726C21.2369 10.2503 24.7987 9.60293 28.4228 11.0382V5.875C25.7319 5.87378 23.1681 6.29885 21.6791 8.78332Z" fill="#FD4F02"/>
<path d="M59.5749 5.54688C59.3807 5.54688 59.1877 5.55787 58.9935 5.57864C56.8083 5.81438 54.8051 7.4768 54.3165 9.62047C54.0856 9.54963 53.8548 9.47878 53.6227 9.40794C54.2407 8.33427 54.6597 7.15433 54.7159 5.9805C54.7159 5.98172 52.1545 5.99516 51.9517 5.99638C51.5425 5.99882 51.1309 6.00126 50.7217 6.00371C50.5153 6.00493 50.3113 6.00371 50.1061 6.00737C49.9705 6.00981 49.9827 6.02325 49.9827 6.15639C49.9839 6.26388 49.9827 6.37015 49.9827 6.47764V23.77C51.4472 23.7614 53.2965 23.8005 54.7599 23.7907C54.7599 20.3364 54.7599 18.3503 53.6129 15.7351C53.8377 15.6582 54.06 15.5825 54.2847 15.5067C54.6939 16.9285 55.5294 18.2856 56.8119 19.0258C57.6694 19.5193 58.6844 19.7098 59.6714 19.6426C62.4344 19.457 64.8187 17.2266 65.6065 14.5711C66.2331 12.4628 65.9375 10.0651 64.6794 8.26342C63.53 6.62055 61.5683 5.54565 59.5749 5.54688ZM58.2533 15.9758C56.4809 15.9758 55.4048 14.361 55.4048 12.4299C55.4048 10.4987 56.4809 9.08547 58.2533 9.08547C60.0232 9.08547 61.1482 10.4987 61.1482 12.4299C61.1482 14.361 60.0232 15.9758 58.2533 15.9758Z" fill="#FD4F02"/>
<path d="M40.4737 10.9839C39.7103 10.6566 39.3988 9.77099 40.1659 9.22133C40.6142 8.90009 41.22 8.82558 41.7575 8.82558C42.8763 8.82558 44.3848 9.39234 44.3971 10.7079H48.6734C48.5415 9.23965 47.9589 7.8313 46.8302 6.87611C45.6735 5.8965 44.0257 5.60456 42.571 5.52272C40.5861 5.41035 38.3105 5.84764 36.78 7.1937C35.3277 8.47257 34.6998 11.0633 36.1167 12.6097C36.6261 13.1667 37.3614 13.6125 38.3239 13.9484C39.2852 14.2855 40.42 14.6092 41.7269 14.9183C42.9008 15.1907 43.674 15.4227 44.0502 15.6145C44.4252 15.8063 44.612 16.075 44.612 16.4207C44.612 16.8763 44.3958 17.2 43.9634 17.3905C43.5298 17.5823 43.0156 17.6776 42.4195 17.6776C40.4823 17.6776 39.4538 17.1096 39.3341 15.3702H35.0516C35.0284 16.6845 35.4962 17.8254 36.074 18.5924C37.4762 20.4576 39.7494 21.0659 41.9895 21.0659C44.8258 21.0659 49.0252 20.6372 49.0252 16.3657C49.0252 16.0677 49.0057 15.766 48.9458 15.474C48.1934 11.7608 43.178 12.1443 40.4737 10.9839Z" fill="#FD4F02"/>
<path d="M75.5089 6.32544V10.6311C75.5089 13.6604 74.7564 15.175 73.2504 15.175C72.73 15.175 72.3257 15.0211 72.0375 14.7133C71.7492 14.4054 71.544 14.0134 71.4243 13.537C71.3034 13.0618 71.2288 12.5732 71.2007 12.0712C71.1727 11.5692 71.1592 11.1331 71.1592 10.763V6.32544H66.6691V11.9784C66.6691 12.2948 66.6825 12.7308 66.7106 13.2866C66.7387 13.8411 66.8267 14.4409 66.9757 15.0821C67.1247 15.7259 67.3666 16.3329 67.7012 16.9046C68.0359 17.4774 68.5013 17.9477 69.0962 18.3178C69.2708 18.4265 69.4565 18.5194 69.647 18.5987C71.2826 19.2742 73.7878 19.1533 74.8725 17.5544C75.4563 16.6933 75.6212 15.7222 75.6212 14.6974H76.2503C76.2503 16.6957 76.265 17.8439 75.1754 19.0898C74.9616 19.3341 74.7161 19.5478 74.4437 19.7262C73.6987 20.2135 72.7984 20.4309 71.9141 20.4309C71.263 20.4309 70.5241 20.3076 69.6971 20.0608C68.8702 19.8141 68.1214 19.3915 67.4521 18.793L66.4199 23.0986C67.2749 23.5567 68.2277 23.8865 69.2782 24.0892C70.3286 24.292 71.2814 24.3934 72.1364 24.3934C73.9393 24.3934 75.4173 24.0367 76.5703 23.3234C78.3097 22.2473 79.3834 20.3992 79.7669 18.4216C79.9465 17.4945 80.0002 16.5491 80.0002 15.6062C80.0002 14.5838 80.0002 13.5614 80.0002 12.539C80.0002 11.2651 80.0002 9.99107 80.0002 8.71707C80.0002 7.94633 80.0002 7.1768 80.0002 6.40606C80.0002 6.37918 80.0002 6.35109 80.0002 6.32422H75.5089V6.32544Z" fill="#FD4F02"/>
<path d="M15.2061 17.9143C14.8885 16.6049 14.0567 15.3443 12.9561 14.5626C11.775 13.7222 10.3141 13.5036 8.90694 13.3668C8.43912 13.3216 7.96886 13.2947 7.49859 13.2752C6.84755 13.2483 6.19407 13.2349 5.54302 13.252C5.51859 13.2556 5.50516 13.2568 5.50516 13.2568V12.5044C5.51615 12.5044 8.72373 12.6327 9.96718 12.2504C11.1166 12.0207 12.211 11.5004 12.9879 10.5989C14.1018 9.30784 14.3999 8.07537 14.4121 6.38853C14.4133 6.36532 14.4133 6.33967 14.4133 6.31524H9.14757V6.38853C9.14391 7.04445 9.08894 7.37547 8.98878 7.90681C8.89473 8.40395 8.76159 8.84734 8.59425 9.23943C8.59303 9.24065 8.59303 9.24188 8.59303 9.2431C7.82228 11.0484 6.33209 11.7776 4.67089 11.7776V2.33203H0V20.836H4.67089C4.67089 20.836 4.67089 20.808 4.67089 20.753V14.6725C4.67089 14.6725 4.68189 14.6725 4.70387 14.6725C4.99214 14.6786 7.11261 14.7507 8.24491 15.5312C8.49653 15.6766 8.73228 15.8464 8.9497 16.043C8.9668 16.0589 8.9839 16.0748 9.001 16.0894C9.71556 16.7576 10.0405 17.532 10.1858 18.3723C10.187 18.3748 10.187 18.3772 10.187 18.3785C10.3202 19.1516 10.3043 19.9822 10.3043 20.836H15.4943C15.4943 20.7347 15.4931 20.6321 15.4907 20.5343C15.4736 19.6561 15.4137 18.7705 15.2061 17.9143Z" fill="#FD4F02"/>
</svg>
