<svg width="45" height="44" viewBox="0 0 45 44" fill="none" xmlns="http://www.w3.org/2000/svg">
<rect x="0.75" width="44" height="44" rx="22" fill="#EFF1FF"/>
<path d="M23.6263 25.5419H22.0596C20.9513 25.5419 20.043 24.6085 20.043 23.4585C20.043 23.1169 20.3263 22.8335 20.668 22.8335C21.0096 22.8335 21.293 23.1169 21.293 23.4585C21.293 23.9169 21.6346 24.2919 22.0596 24.2919H23.6263C23.9513 24.2919 24.2096 24.0002 24.2096 23.6419C24.2096 23.1919 24.0846 23.1252 23.8013 23.0252L21.293 22.1502C20.7596 21.9669 20.043 21.5752 20.043 20.3502C20.043 19.3085 20.868 18.4502 21.8763 18.4502H23.443C24.5513 18.4502 25.4596 19.3835 25.4596 20.5335C25.4596 20.8752 25.1763 21.1585 24.8346 21.1585C24.493 21.1585 24.2096 20.8752 24.2096 20.5335C24.2096 20.0752 23.868 19.7002 23.443 19.7002H21.8763C21.5513 19.7002 21.293 19.9919 21.293 20.3502C21.293 20.8002 21.418 20.8669 21.7013 20.9669L24.2096 21.8419C24.743 22.0252 25.4596 22.4169 25.4596 23.6419C25.4596 24.6919 24.6346 25.5419 23.6263 25.5419Z" fill="#5C78FF"/>
<path d="M22.75 26.375C22.4083 26.375 22.125 26.0917 22.125 25.75V18.25C22.125 17.9083 22.4083 17.625 22.75 17.625C23.0917 17.625 23.375 17.9083 23.375 18.25V25.75C23.375 26.0917 23.0917 26.375 22.75 26.375Z" fill="#5C78FF"/>
<path d="M22.7513 30.9587C17.8096 30.9587 13.793 26.942 13.793 22.0003C13.793 17.0587 17.8096 13.042 22.7513 13.042C23.093 13.042 23.3763 13.3253 23.3763 13.667C23.3763 14.0087 23.093 14.292 22.7513 14.292C18.5013 14.292 15.043 17.7503 15.043 22.0003C15.043 26.2503 18.5013 29.7087 22.7513 29.7087C27.0013 29.7087 30.4596 26.2503 30.4596 22.0003C30.4596 21.6587 30.743 21.3753 31.0846 21.3753C31.4263 21.3753 31.7096 21.6587 31.7096 22.0003C31.7096 26.942 27.693 30.9587 22.7513 30.9587Z" fill="#5C78FF"/>
<path d="M30.2513 18.4583H26.918C26.5763 18.4583 26.293 18.175 26.293 17.8333V14.5C26.293 14.1583 26.5763 13.875 26.918 13.875C27.2596 13.875 27.543 14.1583 27.543 14.5V17.2083H30.2513C30.593 17.2083 30.8763 17.4917 30.8763 17.8333C30.8763 18.175 30.593 18.4583 30.2513 18.4583Z" fill="#5C78FF"/>
<path d="M26.9159 18.4585C26.7576 18.4585 26.5992 18.4002 26.4742 18.2752C26.2326 18.0335 26.2326 17.6335 26.4742 17.3919L30.6409 13.2252C30.8826 12.9835 31.2826 12.9835 31.5242 13.2252C31.7659 13.4669 31.7659 13.8669 31.5242 14.1085L27.3576 18.2752C27.2326 18.4002 27.0742 18.4585 26.9159 18.4585Z" fill="#5C78FF"/>
</svg>
