<svg width="44" height="44" viewBox="0 0 44 44" fill="none" xmlns="http://www.w3.org/2000/svg">
<rect width="44" height="44" rx="22" fill="#FFEDE6"/>
<path d="M22.8763 25.5419H21.3096C20.2013 25.5419 19.293 24.6085 19.293 23.4585C19.293 23.1169 19.5763 22.8335 19.918 22.8335C20.2596 22.8335 20.543 23.1169 20.543 23.4585C20.543 23.9169 20.8846 24.2919 21.3096 24.2919H22.8763C23.2013 24.2919 23.4596 24.0002 23.4596 23.6419C23.4596 23.1919 23.3346 23.1252 23.0513 23.0252L20.543 22.1502C20.0096 21.9585 19.293 21.5752 19.293 20.3502C19.293 19.3085 20.118 18.4502 21.1263 18.4502H22.693C23.8013 18.4502 24.7096 19.3835 24.7096 20.5335C24.7096 20.8752 24.4263 21.1585 24.0846 21.1585C23.743 21.1585 23.4596 20.8752 23.4596 20.5335C23.4596 20.0752 23.118 19.7002 22.693 19.7002H21.1263C20.8013 19.7002 20.543 19.9919 20.543 20.3502C20.543 20.8002 20.668 20.8669 20.9513 20.9669L23.4596 21.8419C23.993 22.0335 24.7096 22.4169 24.7096 23.6419C24.7096 24.6919 23.8846 25.5419 22.8763 25.5419Z" fill="#FD4F02"/>
<path d="M22 26.375C21.6583 26.375 21.375 26.0917 21.375 25.75V18.25C21.375 17.9083 21.6583 17.625 22 17.625C22.3417 17.625 22.625 17.9083 22.625 18.25V25.75C22.625 26.0917 22.3417 26.375 22 26.375Z" fill="#FD4F02"/>
<path d="M22.0013 30.9587C17.0596 30.9587 13.043 26.942 13.043 22.0003C13.043 17.0587 17.0596 13.042 22.0013 13.042C22.343 13.042 22.6263 13.3253 22.6263 13.667C22.6263 14.0087 22.343 14.292 22.0013 14.292C17.7513 14.292 14.293 17.7503 14.293 22.0003C14.293 26.2503 17.7513 29.7087 22.0013 29.7087C26.2513 29.7087 29.7096 26.2503 29.7096 22.0003C29.7096 21.6587 29.993 21.3753 30.3346 21.3753C30.6763 21.3753 30.9596 21.6587 30.9596 22.0003C30.9596 26.942 26.943 30.9587 22.0013 30.9587Z" fill="#FD4F02"/>
<path d="M30.3333 17.6253C29.9917 17.6253 29.7083 17.342 29.7083 17.0003V14.292H27C26.6583 14.292 26.375 14.0087 26.375 13.667C26.375 13.3253 26.6583 13.042 27 13.042H30.3333C30.675 13.042 30.9583 13.3253 30.9583 13.667V17.0003C30.9583 17.342 30.675 17.6253 30.3333 17.6253Z" fill="#FD4F02"/>
<path d="M26.1659 18.4585C26.0076 18.4585 25.8492 18.4002 25.7242 18.2752C25.4826 18.0335 25.4826 17.6335 25.7242 17.3919L29.8909 13.2252C30.1326 12.9835 30.5326 12.9835 30.7742 13.2252C31.0159 13.4669 31.0159 13.8669 30.7742 14.1085L26.6076 18.2752C26.4826 18.4002 26.3242 18.4585 26.1659 18.4585Z" fill="#FD4F02"/>
</svg>
