<svg width="45" height="44" viewBox="0 0 45 44" fill="none" xmlns="http://www.w3.org/2000/svg">
<rect x="0.5" width="44" height="44" rx="22" fill="#FFEDE6"/>
<path d="M22.5013 30.9587H20.0013C15.4763 30.9587 13.543 29.0253 13.543 24.5003V19.5003C13.543 14.9753 15.4763 13.042 20.0013 13.042H25.0013C29.5263 13.042 31.4596 14.9753 31.4596 19.5003V22.0003C31.4596 22.342 31.1763 22.6253 30.8346 22.6253C30.493 22.6253 30.2096 22.342 30.2096 22.0003V19.5003C30.2096 15.6587 28.843 14.292 25.0013 14.292H20.0013C16.1596 14.292 14.793 15.6587 14.793 19.5003V24.5003C14.793 28.342 16.1596 29.7087 20.0013 29.7087H22.5013C22.843 29.7087 23.1263 29.992 23.1263 30.3337C23.1263 30.6753 22.843 30.9587 22.5013 30.9587Z" fill="#FD4F02"/>
<path d="M26.143 30.975C26.1346 30.975 26.1346 30.975 26.1263 30.975C25.2846 30.9667 24.5846 30.4501 24.3346 29.6417L22.793 24.6834C22.5846 24.0001 22.7596 23.2667 23.268 22.775C23.768 22.2834 24.493 22.1 25.1596 22.3084L30.1263 23.8501C30.9263 24.1001 31.4513 24.8 31.4596 25.6417C31.468 26.475 30.9597 27.1834 30.1597 27.4501L28.8013 27.9084C28.6097 27.9751 28.4597 28.1167 28.4013 28.3084L27.9346 29.675C27.6763 30.4667 26.9763 30.975 26.143 30.975ZM24.593 23.475C24.368 23.475 24.218 23.6 24.1513 23.6584C23.9763 23.8334 23.918 24.0751 23.993 24.3167L25.5346 29.2751C25.668 29.7001 26.018 29.7167 26.1513 29.725C26.268 29.725 26.6263 29.6917 26.7596 29.2834L27.2263 27.9167C27.4096 27.3584 27.8596 26.9167 28.418 26.7251L29.7763 26.2667C30.193 26.1334 30.218 25.7667 30.218 25.6584C30.218 25.5501 30.1847 25.1834 29.768 25.0501L24.8013 23.5084C24.718 23.4834 24.6513 23.475 24.593 23.475Z" fill="#FD4F02"/>
</svg>
