<svg width="20" height="20" viewBox="0 0 20 20" fill="none" xmlns="http://www.w3.org/2000/svg">
<g id="paper-airplane">
<path id="Fill" d="M2.898 2.00334C2.67738 1.93926 2.43939 2.00137 2.27823 2.16509C2.11707 2.32882 2.05872 2.56776 2.12629 2.78734L4.15318 9.37476H11.2496C11.5948 9.37476 11.8746 9.65458 11.8746 9.99976C11.8746 10.3449 11.5948 10.6248 11.2496 10.6248H4.15319L2.12636 17.212C2.0588 17.4315 2.11715 17.6705 2.27831 17.8342C2.43947 17.9979 2.67747 18.06 2.89808 17.9959C8.48024 16.3743 13.6642 13.8176 18.269 10.507C18.4324 10.3896 18.5292 10.2007 18.5292 9.99955C18.5292 9.79838 18.4324 9.60951 18.269 9.49208C13.6641 6.18156 8.48018 3.62493 2.898 2.00334Z" fill="white"/>
</g>
</svg>
