<svg width="20" height="20" viewBox="0 0 20 20" fill="none" xmlns="http://www.w3.org/2000/svg">
<path fill-rule="evenodd" clip-rule="evenodd" d="M5.625 4.375C5.625 4.02982 5.90482 3.75 6.25 3.75H7.5C7.84518 3.75 8.125 4.02982 8.125 4.375V15.625C8.125 15.9702 7.84518 16.25 7.5 16.25H6.25C6.08424 16.25 5.92527 16.1842 5.80806 16.0669C5.69085 15.9497 5.625 15.7908 5.625 15.625L5.625 4.375ZM11.875 4.375C11.875 4.02982 12.1548 3.75 12.5 3.75H13.75C13.9158 3.75 14.0747 3.81585 14.1919 3.93306C14.3092 4.05027 14.375 4.20924 14.375 4.375L14.375 15.625C14.375 15.9702 14.0952 16.25 13.75 16.25H12.5C12.1548 16.25 11.875 15.9702 11.875 15.625V4.375Z" fill="#121212"/>
</svg>
