<svg width="45" height="44" viewBox="0 0 45 44" fill="none" xmlns="http://www.w3.org/2000/svg">
<rect x="0.25" width="44" height="44" rx="22" fill="#EFF1FF"/>
<path d="M19.4763 30.9587H13.918C13.5763 30.9587 13.293 30.6753 13.293 30.3337V25.3337C13.293 24.067 14.318 23.042 15.5846 23.042H19.4763C19.818 23.042 20.1013 23.3253 20.1013 23.667V30.3337C20.1013 30.6753 19.818 30.9587 19.4763 30.9587ZM14.543 29.7087H18.8513V24.292H15.5846C15.0096 24.292 14.543 24.7587 14.543 25.3337V29.7087Z" fill="#5C78FF"/>
<path d="M25.0271 30.958H19.4688C19.1271 30.958 18.8438 30.6747 18.8438 30.333V21.9997C18.8438 20.733 19.8688 19.708 21.1354 19.708H23.3604C24.6271 19.708 25.6521 20.733 25.6521 21.9997V30.333C25.6521 30.6747 25.3771 30.958 25.0271 30.958ZM20.1021 29.708H24.4104V21.9997C24.4104 21.4247 23.9438 20.958 23.3688 20.958H21.1437C20.5687 20.958 20.1021 21.4247 20.1021 21.9997V29.708Z" fill="#5C78FF"/>
<path d="M30.5818 30.9587H25.0234C24.6818 30.9587 24.3984 30.6753 24.3984 30.3337V26.167C24.3984 25.8253 24.6818 25.542 25.0234 25.542H28.9151C30.1818 25.542 31.2068 26.567 31.2068 27.8337V30.3337C31.2068 30.6753 30.9234 30.9587 30.5818 30.9587ZM25.6484 29.7087H29.9568V27.8337C29.9568 27.2587 29.4901 26.792 28.9151 26.792H25.6484V29.7087Z" fill="#5C78FF"/>
<path d="M23.6684 18.9579C23.4684 18.9579 23.2184 18.8995 22.935 18.7329L22.2517 18.3245L21.5767 18.7245C20.8934 19.1329 20.4434 18.8912 20.2767 18.7745C20.11 18.6579 19.7517 18.2912 19.9267 17.5245L20.085 16.8329L19.5184 16.2662C19.1684 15.9162 19.0434 15.4995 19.1684 15.1162C19.2934 14.7329 19.635 14.4662 20.1184 14.3829L20.8434 14.2579L21.2517 13.4412C21.7017 12.5495 22.7934 12.5495 23.235 13.4412L23.6434 14.2579L24.3684 14.3829C24.8517 14.4662 25.2017 14.7329 25.3184 15.1162C25.4434 15.4995 25.31 15.9162 24.9684 16.2662L24.4017 16.8329L24.56 17.5245C24.735 18.2995 24.3767 18.6579 24.21 18.7829C24.135 18.8495 23.9434 18.9579 23.6684 18.9579ZM22.2517 17.0662C22.4517 17.0662 22.6517 17.1162 22.8184 17.2162L23.285 17.4912L23.185 17.0412C23.1017 16.6912 23.2267 16.2662 23.485 16.0079L23.91 15.5829L23.385 15.4912C23.0517 15.4329 22.7267 15.1912 22.5767 14.8912L22.2517 14.2662L21.935 14.8912C21.785 15.1912 21.46 15.4329 21.1267 15.4912L20.6017 15.5745L21.0267 15.9995C21.285 16.2579 21.4017 16.6829 21.3267 17.0329L21.2267 17.4829L21.6934 17.2079C21.8517 17.1079 22.0517 17.0662 22.2517 17.0662Z" fill="#5C78FF"/>
</svg>
