<svg width="18" height="16" viewBox="0 0 18 16" fill="none" xmlns="http://www.w3.org/2000/svg">
<path d="M8.56724 0.915689C8.72736 0.530708 9.27273 0.530708 9.43285 0.915689L11.2045 5.17524C11.272 5.33753 11.4246 5.44843 11.5998 5.46247L16.1984 5.83113C16.614 5.86445 16.7825 6.38313 16.4659 6.65438L12.9623 9.65559C12.8288 9.76994 12.7705 9.94937 12.8113 10.1203L13.8817 14.6077C13.9784 15.0133 13.5372 15.3339 13.1814 15.1165L9.24438 12.7118C9.09437 12.6202 8.90571 12.6202 8.75571 12.7118L4.81872 15.1165C4.46289 15.3339 4.02168 15.0133 4.11842 14.6077L5.18883 10.1203C5.22961 9.94937 5.17131 9.76994 5.03782 9.65559L1.53422 6.65438C1.21756 6.38313 1.38609 5.86446 1.8017 5.83114L6.40024 5.46247C6.57546 5.44843 6.72809 5.33753 6.79559 5.17524L8.56724 0.915689Z" stroke="#5E5E5E" stroke-width="1.25" stroke-linecap="round" stroke-linejoin="round"/>
</svg>
