<svg width="20" height="20" viewBox="0 0 20 20" fill="none" xmlns="http://www.w3.org/2000/svg">
<path d="M5.49998 3C5.41357 2.99998 5.32863 3.02236 5.25345 3.06495C5.17826 3.10753 5.1154 3.16888 5.07098 3.243L2.07098 8.243C2.01773 8.33197 1.99345 8.4353 2.00151 8.53867C2.00958 8.64205 2.04958 8.74036 2.11598 8.82L9.60998 17.813C9.66494 17.8815 9.73694 17.9342 9.81876 17.966C9.90059 17.9978 9.98934 18.0075 10.0761 17.9942C10.1629 17.9808 10.2446 17.9448 10.313 17.8898C10.3814 17.8349 10.4342 17.7628 10.466 17.681L13.842 9H17.734L17.884 8.82C17.9504 8.74036 17.9904 8.64205 17.9985 8.53867C18.0065 8.4353 17.9822 8.33197 17.929 8.243L14.929 3.243C14.8846 3.16888 14.8217 3.10753 14.7465 3.06495C14.6713 3.02236 14.5864 2.99998 14.5 3H5.49998ZM12.77 9L9.99998 16.12L7.23098 9H12.769H12.77ZM3.38198 8L5.78198 4H7.76098L6.16098 8H3.38198ZM6.15698 9L8.42398 14.829L3.56798 9H6.15698ZM7.23698 8L8.83698 4H11.16L12.76 8H7.23998H7.23698ZM13.837 8L12.237 4H14.216L16.616 8H13.837Z" fill="#FD4F02"/>
<path d="M16.5607 13.0607C16.2794 13.342 15.8978 13.5 15.5 13.5C15.1022 13.5 14.7206 13.342 14.4393 13.0607C14.158 12.7794 14 12.3978 14 12C14 11.6022 14.158 11.2206 14.4393 10.9393C14.7206 10.658 15.1022 10.5 15.5 10.5C15.8978 10.5 16.2794 10.658 16.5607 10.9393C16.842 11.2206 17 11.6022 17 12C17 12.3978 16.842 12.7794 16.5607 13.0607ZM18.5 16.5C18.5 16.983 18.3092 17.4641 17.8672 17.833C17.4194 18.2066 16.67 18.5 15.5 18.5C14.3295 18.5 13.5801 18.2076 13.1326 17.8346C12.691 17.4667 12.5 16.9859 12.5 16.5C12.5 16.2348 12.6054 15.9804 12.7929 15.7929C12.9804 15.6054 13.2348 15.5 13.5 15.5H17.5C17.7652 15.5 18.0196 15.6054 18.2071 15.7929C18.3946 15.9804 18.5 16.2348 18.5 16.5Z" stroke="#FD4F02"/>
</svg>
