<svg width="20" height="20" viewBox="0 0 20 20" fill="none" xmlns="http://www.w3.org/2000/svg">
<path d="M14.9993 15.5993C15.2056 15.6163 15.4142 15.625 15.6249 15.625C16.4985 15.625 17.3372 15.4756 18.1169 15.201C18.1222 15.1347 18.1249 15.0677 18.1249 15C18.1249 13.6193 17.0056 12.5 15.6249 12.5C15.1019 12.5 14.6163 12.6606 14.215 12.9352M14.9993 15.5993C14.9994 15.6079 14.9994 15.6164 14.9994 15.625C14.9994 15.8125 14.9891 15.9976 14.969 16.1797C13.505 17.0197 11.8083 17.5 9.99939 17.5C8.1905 17.5 6.49378 17.0197 5.02981 16.1797C5.00971 15.9976 4.99939 15.8125 4.99939 15.625C4.99939 15.6165 4.99941 15.6079 4.99945 15.5994M14.9993 15.5993C14.9944 14.6188 14.7073 13.7051 14.215 12.9352M14.215 12.9352C13.3267 11.546 11.7706 10.625 9.99939 10.625C8.22838 10.625 6.67243 11.5458 5.78413 12.9347M5.78413 12.9347C5.38291 12.6604 4.89769 12.5 4.375 12.5C2.99429 12.5 1.875 13.6193 1.875 15C1.875 15.0677 1.87769 15.1347 1.88297 15.201C2.66266 15.4756 3.50139 15.625 4.375 15.625C4.58528 15.625 4.79355 15.6163 4.99945 15.5994M5.78413 12.9347C5.29164 13.7047 5.00438 14.6187 4.99945 15.5994M12.4994 5.625C12.4994 7.00571 11.3801 8.125 9.99939 8.125C8.61868 8.125 7.49939 7.00571 7.49939 5.625C7.49939 4.24429 8.61868 3.125 9.99939 3.125C11.3801 3.125 12.4994 4.24429 12.4994 5.625ZM17.4994 8.125C17.4994 9.16053 16.6599 10 15.6244 10C14.5889 10 13.7494 9.16053 13.7494 8.125C13.7494 7.08947 14.5889 6.25 15.6244 6.25C16.6599 6.25 17.4994 7.08947 17.4994 8.125ZM6.24939 8.125C6.24939 9.16053 5.40992 10 4.37439 10C3.33886 10 2.49939 9.16053 2.49939 8.125C2.49939 7.08947 3.33886 6.25 4.37439 6.25C5.40992 6.25 6.24939 7.08947 6.24939 8.125Z" stroke="#A5A5A5" stroke-width="1.25" stroke-linecap="round" stroke-linejoin="round"/>
</svg>
